PathFileType	4	(X/Y/Z)	s02c0401.trc
DataRate	CameraRate	NumFrames	NumMarkers	Units	OrigDataRate	OrigDataStartFrame	OrigNumFrames
200	200	4	50	mm	200	1250	2000
Frame#	Time	racr			lacr			c7			jug			rlel			rdr			llel			ldr			s2			lic			ric			lasi			rasi			rpsi			lpsi			rgt			lgt			rth1			rth2			rth3			rth4			rlfc			rmfc			rsh1			rsh2			rsh3			rsh4			rlmal			rmmal			rtoe			rmt5			rmt1			lth1			lth2			lth4			lth3			llfc			lmfc			lsh1			lsh2			lsh3			lsh4			llmal			lmmal			lcal			ltoe			lmt5			SBIKE			LBIKE			RBIKE			
		X1	Y1	Z1	X2	Y2	Z2	X3	Y3	Z3	X4	Y4	Z4	X5	Y5	Z5	X6	Y6	Z6	X7	Y7	Z7	X8	Y8	Z8	X9	Y9	Z9	X10	Y10	Z10	X11	Y11	Z11	X12	Y12	Z12	X13	Y13	Z13	X14	Y14	Z14	X15	Y15	Z15	X16	Y16	Z16	X17	Y17	Z17	X18	Y18	Z18	X19	Y19	Z19	X20	Y20	Z20	X21	Y21	Z21	X22	Y22	Z22	X23	Y23	Z23	X24	Y24	Z24	X25	Y25	Z25	X26	Y26	Z26	X27	Y27	Z27	X28	Y28	Z28	X29	Y29	Z29	X30	Y30	Z30	X31	Y31	Z31	X32	Y32	Z32	X33	Y33	Z33	X34	Y34	Z34	X35	Y35	Z35	X36	Y36	Z36	X37	Y37	Z37	X38	Y38	Z38	X39	Y39	Z39	X40	Y40	Z40	X41	Y41	Z41	X42	Y42	Z42	X43	Y43	Z43	X44	Y44	Z44	X45	Y45	Z45	X46	Y46	Z46	X47	Y47	Z47	X48	Y48	Z48	X49	Y49	Z49	X50	Y50	Z50	
1250	6.2500	782.581057	1190.183349	-132.419010	788.270080	1156.342178	-504.665778	805.024117	1235.897086	-327.012633	720.146022	1122.253749	-328.445180	603.833470	1009.856311	-30.691237	708.567073	878.158314	-129.539670	567.416191	1019.087305	-635.668454	698.343992	883.061595	-533.435766	249.421117	1166.959603	-354.805438	397.831456	1119.609448	-486.061629	363.599591	1174.912382	-206.631348	424.375356	1081.973248	-449.339928	409.498132	1131.611284	-222.537193	279.542853	1213.210650	-317.068378	295.101767	1202.012113	-399.751323	338.517379	1096.944627	-158.201248	313.404872	1041.426809	-507.505904	425.421148	1052.307116	-166.279616	508.335826	1022.551079	-181.331530	570.149057	966.079516	-164.525281	520.481290	1042.596184	-211.819150	654.710139	851.435434	-204.626612	622.873482	833.854627	-312.051434	583.174447	766.725926	-181.016000	515.980724	708.490525	-191.042467	435.267923	683.721222	-174.389052	519.425574	697.566325	-230.107446	325.812517	633.351971	-164.540388	336.351415	641.126228	-246.911076	404.768997	424.650664	-198.267572	330.047450	503.981538	-140.970167	352.020772	486.931139	-247.830462	352.599394	910.398579	-524.533125	376.717631	826.528640	-518.454911	410.191957	828.494527	-503.199563	354.108546	740.557752	-516.823530	356.877003	644.489669	-491.999281	348.139505	615.834443	-394.329189	321.777419	547.514866	-516.005171	322.733503	462.721473	-501.381837	276.757299	383.915862	-500.852165	340.692638	460.894819	-464.388777	240.566526	284.494399	-486.480069	253.777500	278.333426	-408.242242	166.330501	270.578707	-447.142845	408.057904	109.483332	-439.719412	308.244890	146.532401	-504.995169	-164.862242	857.919951	-316.157315	32.993664	81.828238	-515.318218	33.036491	82.143428	-115.229048	
1251	6.2550	781.476384	1189.300137	-129.708458	789.104591	1156.436146	-501.737786	804.766620	1235.431236	-323.897324	720.092959	1121.647856	-325.997442	603.036562	1008.698540	-29.376815	708.094644	878.314582	-129.357075	568.275525	1018.898552	-634.127391	698.142917	882.216062	-532.838112	249.263810	1168.125408	-355.725638	398.738534	1119.830843	-486.095234	362.649121	1175.769697	-207.192640	424.421990	1082.226072	-448.977019	409.454891	1133.496104	-222.978328	279.711625	1213.855605	-318.953093	296.175194	1203.034017	-401.289959	338.547666	1099.393932	-158.638566	313.137204	1042.122197	-508.262269	425.101667	1056.410352	-166.760267	508.110923	1027.092131	-181.529332	570.258870	971.007593	-163.979387	520.228905	1047.126942	-212.093906	660.675197	854.297952	-205.691514	625.947825	839.993006	-311.645721	588.075775	771.764295	-180.484449	522.214381	712.058756	-191.014323	441.853300	685.839259	-174.512397	525.950105	701.305895	-229.875669	332.647062	633.188736	-165.099547	342.944879	640.941345	-247.208011	416.636870	426.957724	-198.272107	339.972837	504.653243	-141.026434	362.889915	488.272854	-248.460917	350.714059	910.984888	-524.597430	373.818780	826.827445	-519.367264	407.287211	828.310684	-503.958177	349.836603	741.316446	-517.794948	351.353585	644.985411	-493.058904	342.606600	616.410356	-395.067302	315.281707	548.597441	-517.009326	315.873025	463.759845	-502.430877	269.261969	385.078807	-501.561884	333.988691	461.774092	-465.460760	233.315697	285.844555	-487.260083	246.294218	279.737055	-408.963712	158.852691	273.759946	-447.915863	397.018901	107.400683	-439.411588	298.199484	146.398711	-505.021411	-164.948516	857.915805	-316.207389	32.988625	81.791734	-515.353086	33.024909	82.138152	-115.225067	
1252	6.2600	780.257512	1188.231571	-126.989512	789.857439	1156.491800	-498.952216	804.859405	1235.162028	-320.769180	719.821690	1121.676156	-323.906195	602.075372	1007.324801	-28.758337	707.616559	878.381830	-129.199803	569.208411	1018.827088	-632.386457	698.095773	881.332803	-532.132865	248.997035	1169.551661	-356.463988	399.313114	1120.555529	-486.245009	361.942189	1177.021443	-207.520438	424.204409	1082.980546	-448.635538	409.031339	1135.064078	-223.355976	279.777588	1214.908384	-320.247288	297.086069	1204.044527	-402.487059	338.442052	1102.113541	-159.128984	312.573539	1043.246216	-508.883642	424.733199	1060.667380	-166.131124	507.521499	1031.306341	-181.315558	569.923860	976.191650	-162.148564	519.756783	1051.213836	-211.908563	658.068283	862.555357	-199.559870	627.724568	847.030125	-311.897281	592.441913	776.285820	-179.930942	529.200950	715.953437	-188.931833	448.012347	687.459053	-174.413503	532.056700	704.455065	-229.384749	338.872277	632.272570	-165.550451	349.009673	640.000084	-247.400158	428.834313	428.947461	-198.597993	349.645348	504.667201	-140.938452	373.087585	488.899918	-248.487605	349.422419	912.424473	-525.390441	371.363807	827.949019	-520.436767	404.686480	828.599400	-504.706750	346.116210	742.510935	-518.744331	346.550069	645.894674	-494.319650	338.155405	617.337249	-395.910368	309.781801	550.105405	-517.872156	309.720174	465.327149	-503.393257	262.422829	386.969881	-502.295753	327.929409	463.161333	-466.499936	226.316065	287.924108	-487.990025	239.101536	281.826960	-409.743397	151.703990	277.606471	-448.471989	385.976483	105.931624	-439.162119	288.146118	146.871762	-505.034220	-164.948128	857.951880	-316.207026	32.967778	81.790577	-515.347283	33.013041	82.130016	-115.238920	
1253	6.2650	779.055221	1186.914420	-124.449642	790.545693	1156.616771	-496.226743	804.777132	1234.420564	-317.738156	719.416394	1121.206263	-321.731186	600.980364	1006.081950	-27.465186	707.046620	878.606320	-129.336653	572.661446	1018.295212	-632.857579	698.101940	880.465436	-531.403181	249.209049	1171.034623	-357.569601	399.887381	1121.695915	-487.096315	361.324764	1178.388418	-207.906513	423.789797	1083.876952	-448.471505	408.348580	1136.430606	-223.448423	279.954005	1216.279615	-321.328397	296.927776	1206.002422	-402.442595	338.296819	1104.516770	-159.760687	311.763850	1044.859502	-509.561774	423.888049	1064.453478	-166.005320	506.628622	1034.986365	-180.770374	568.908324	980.291518	-161.121686	518.942358	1054.885059	-211.307070	659.556176	867.788831	-197.182930	629.913831	850.704726	-309.791550	596.126281	780.328076	-178.787946	534.482497	718.503551	-187.646322	453.538277	688.472631	-173.969704	537.662882	706.944886	-228.307433	344.246604	630.580846	-165.833469	355.699813	638.715381	-247.952967	440.913556	430.923457	-198.138014	358.934006	504.101168	-140.710153	383.051961	489.009205	-248.465471	347.970403	914.107927	-525.775117	369.257148	829.455292	-521.571858	402.534842	829.653400	-505.748240	343.060282	744.215467	-519.754668	342.818386	647.299376	-495.549512	334.673044	619.082482	-396.221618	305.159005	552.063535	-518.731235	304.173074	467.180152	-504.071180	256.113754	389.454819	-503.019696	322.623627	464.873877	-467.403662	219.394200	290.772412	-488.545110	230.709462	285.488275	-411.931014	144.665825	282.152388	-448.949882	375.010831	105.265060	-439.050073	278.110874	148.202524	-505.097803	-165.006798	857.892849	-316.222568	32.949371	81.797404	-515.353776	33.004784	82.147179	-115.240223	
